<?xml version="1.0" standalone="no"?>
<!DOCTYPE svg PUBLIC "-//W3C//DTD SVG 20010904//EN"
 "http://www.w3.org/TR/2001/REC-SVG-20010904/DTD/svg10.dtd">
<svg version="1.0" xmlns="http://www.w3.org/2000/svg"
 width="800.000000pt" height="800.000000pt" viewBox="0 0 800.000000 800.000000"
 preserveAspectRatio="xMidYMid meet">
<metadata>
Created by potrace 1.11, written by Peter Selinger 2001-2013
</metadata>
<g transform="translate(0.000000,800.000000) scale(0.100000,-0.100000)"
fill="#000000" stroke="none">
<path d="M0 4000 l0 -4000 4000 0 4000 0 0 4000 0 4000 -4000 0 -4000 0 0
-4000z m2450 2769 c267 -33 503 -87 700 -158 113 -42 286 -135 282 -152 -3
-11 -212 -579 -217 -586 0 -1 -45 20 -100 47 -120 61 -319 139 -453 179 -221
66 -549 96 -761 72 -343 -40 -620 -205 -730 -434 -57 -118 -75 -219 -68 -382
7 -145 23 -217 72 -320 126 -263 365 -428 1045 -720 595 -256 858 -415 1069
-649 117 -130 222 -314 274 -482 74 -234 93 -541 52 -809 -95 -613 -535 -1009
-1260 -1134 -337 -59 -832 -53 -1194 14 -192 36 -443 109 -641 187 -103 40
-260 119 -260 130 0 5 48 139 106 297 l106 289 111 -53 c172 -82 430 -180 557
-214 365 -95 848 -104 1165 -21 277 73 475 228 560 438 73 179 77 464 10 652
-43 120 -155 275 -274 377 -191 163 -367 257 -852 454 -603 245 -958 487
-1155 786 -158 241 -212 456 -201 807 9 266 52 448 153 646 300 587 985 853
1904 739z m5300 -2001 c0 -1277 -4 -1951 -11 -2028 -22 -243 -73 -479 -139
-643 -181 -452 -557 -746 -1090 -851 -187 -37 -362 -49 -620 -43 -407 10 -630
62 -965 222 -135 64 -243 127 -307 176 l-36 29 140 288 c77 158 141 288 143
290 1 2 31 -17 66 -41 35 -25 109 -70 163 -101 339 -196 525 -250 851 -249
249 0 413 32 580 114 271 132 409 343 487 744 22 109 22 122 25 1753 l4 1642
-916 0 -915 0 0 298 c0 164 3 302 7 305 3 4 575 7 1270 7 l1263 0 0 -1912z"/>
</g>
</svg>
